<svg version="1.1" id="Layer_1" xmlns="http://www.w3.org/2000/svg" xmlns:xlink="http://www.w3.org/1999/xlink" x="0px" y="0px"
	 width="100%" viewBox="0 0 472 161" enable-background="new 0 0 472 161" xml:space="preserve">
<path fill="#010101" opacity="1.000000" stroke="none" 
	d="
M301.000000,162.000000 
	C200.666702,162.000000 100.833405,162.000000 1.000080,162.000000 
	C1.000054,108.333389 1.000054,54.666775 1.000027,1.000124 
	C158.333221,1.000082 315.666443,1.000082 472.999756,1.000041 
	C472.999817,54.666534 472.999817,108.333069 472.999908,161.999802 
	C415.833344,162.000000 358.666656,162.000000 301.000000,162.000000 
M431.072327,82.500015 
	C431.071655,75.334007 431.129089,68.167381 431.052155,61.002197 
	C430.989014,55.121208 428.271545,52.040009 423.338745,51.998936 
	C418.346527,51.957363 415.637085,55.009300 415.554169,60.842098 
	C415.509186,64.007828 415.545471,67.174706 415.544586,70.341064 
	C415.541595,81.006676 415.605377,91.672935 415.503693,102.337608 
	C415.460388,106.883621 412.626678,109.806404 408.587677,109.928642 
	C404.855835,110.041595 401.702789,106.859741 401.346191,102.524727 
	C401.223541,101.033928 401.282379,99.527069 401.281738,98.027534 
	C401.276520,85.362106 401.529633,72.687393 401.065735,60.038940 
	C400.970947,57.454918 398.716278,53.713516 396.502838,52.787846 
	C394.240875,51.841892 390.412079,53.075710 388.028229,54.567886 
	C386.567200,55.482410 385.976318,58.670120 385.949402,60.848797 
	C385.778778,74.677818 385.837128,88.510353 385.921204,102.341110 
	C385.934235,104.484047 386.240875,106.684471 386.796356,108.755112 
	C390.137085,121.207756 401.903564,125.082436 411.920044,117.129799 
	C412.607391,116.584084 413.537537,116.344170 416.078674,115.155991 
	C415.387177,122.666046 415.899750,129.306168 413.922821,135.096344 
	C411.991089,140.754242 405.577423,138.265121 400.980530,138.684906 
	C397.478943,139.004684 395.273438,140.630402 395.187256,144.243362 
	C395.093903,148.156769 397.464996,150.002914 401.148468,150.131927 
	C404.306946,150.242569 407.475586,150.021423 410.639923,150.012772 
	C423.587097,149.977371 431.035583,142.539825 431.064148,129.495529 
	C431.097717,114.163757 431.072235,98.831856 431.072327,82.500015 
M34.127926,62.622501 
	C34.966843,59.527363 36.023460,56.471375 36.588860,53.327053 
	C37.275311,49.509529 38.796261,46.833050 42.993137,46.190067 
	C47.782032,45.456390 47.322689,49.231464 48.002583,51.881302 
	C53.258709,72.366608 58.422924,92.875481 63.668404,113.363533 
	C65.084145,118.893188 67.887352,121.323349 72.513840,121.178665 
	C77.613602,121.019180 79.570938,117.642242 80.678825,113.231071 
	C86.316650,90.783562 92.050507,68.360176 97.691772,45.913525 
	C99.172241,40.022720 97.050232,35.775173 92.399658,34.847240 
	C87.877815,33.944984 83.860062,37.101246 82.732872,42.585602 
	C79.615364,57.753841 76.556389,72.934105 73.443428,88.103294 
	C73.238411,89.102287 72.773834,90.048004 72.092964,91.969780 
	C71.420471,90.496376 71.072159,89.998787 70.961937,89.453102 
	C67.797287,73.786530 64.676689,58.111046 61.501629,42.446594 
	C60.283024,36.434509 58.143642,34.755306 51.858749,34.698582 
	C48.360691,34.667007 44.862106,34.682823 41.363796,34.692211 
	C28.726982,34.726124 21.151726,42.339325 21.218632,54.930363 
	C21.263195,63.316853 25.794268,66.321663 34.127926,62.622501 
M115.435387,56.881626 
	C113.484688,60.808907 110.123993,64.641121 109.851570,68.681557 
	C109.079979,80.125221 109.283157,91.663719 109.664513,103.146194 
	C109.936623,111.339272 116.682274,118.958839 124.420769,119.815964 
	C130.672440,120.508408 137.054092,120.230003 143.369644,120.063187 
	C146.861801,119.970955 148.951614,117.781364 148.780548,114.188667 
	C148.612015,110.649010 146.476608,108.784981 142.913651,108.716766 
	C140.081604,108.662537 137.247192,108.734543 134.414948,108.685921 
	C126.384995,108.548050 123.635986,104.844421 125.587654,96.191330 
	C132.249237,96.191330 139.035873,96.286087 145.818542,96.162956 
	C151.820786,96.054001 154.369431,93.474976 154.437241,87.591820 
	C154.506363,81.593773 154.599426,75.587227 154.366577,69.596664 
	C154.063934,61.810219 150.121811,56.151295 142.792618,53.704945 
	C133.612488,50.640785 124.442909,50.693615 115.435387,56.881626 
M341.220673,113.928436 
	C342.120361,119.337479 344.786194,122.101089 348.962555,121.954239 
	C353.731476,121.786537 356.555298,118.565094 356.589142,112.804428 
	C356.671417,98.805008 356.612244,84.804802 356.637787,70.804955 
	C356.641022,69.039543 356.810730,67.274429 356.920563,65.180550 
	C360.192230,65.180550 362.993347,65.319435 365.774841,65.145264 
	C369.225616,64.929192 371.500397,63.119846 371.413727,59.472168 
	C371.325409,55.754936 369.363159,53.619774 365.414795,53.680820 
	C362.648071,53.723598 359.880157,53.689083 355.933044,53.689083 
	C356.755188,48.025551 356.403564,42.654827 358.558807,38.624786 
	C359.784027,36.333908 365.326599,36.651394 368.506958,34.992840 
	C370.372833,34.019802 372.688263,31.334387 372.506287,29.670162 
	C372.286041,27.655779 369.976654,25.167078 367.951935,24.247787 
	C365.872711,23.303741 363.046356,23.981272 360.547089,23.990423 
	C348.912872,24.033022 341.491577,31.292465 341.227997,42.933430 
	C341.150208,46.368595 341.216034,49.807014 341.216034,53.553082 
	C336.299194,53.693314 331.010284,53.177330 331.111115,59.464821 
	C331.208221,65.520172 336.334930,65.280510 341.214813,65.367279 
	C341.214813,81.475098 341.214813,97.256943 341.220673,113.928436 
M177.776382,60.386536 
	C169.539673,72.885132 174.387497,86.545715 188.578201,90.777428 
	C191.440704,91.631035 194.333145,92.383675 197.206390,93.201797 
	C201.573029,94.445145 204.164459,97.117455 203.741257,101.886757 
	C203.289749,106.975235 199.586044,108.388206 195.304230,108.617722 
	C190.985443,108.849213 186.645416,108.658386 182.315613,108.718521 
	C178.585007,108.770340 176.238602,110.570480 176.175797,114.429939 
	C176.110916,118.417572 178.566803,119.996292 182.294479,120.002480 
	C187.291321,120.010788 192.291794,119.897659 197.284241,120.049385 
	C208.330948,120.385086 217.337173,113.662254 219.088120,103.621506 
	C220.958832,92.893951 215.216476,83.469482 204.552780,79.906128 
	C201.243042,78.800148 197.867172,77.891106 194.517639,76.905304 
	C190.838623,75.822548 187.934937,73.922554 188.680466,69.562286 
	C189.413498,65.274986 192.774353,64.312218 196.576370,64.308548 
	C200.573868,64.304680 204.571365,64.303459 208.568848,64.293358 
	C212.338455,64.283829 214.753220,62.528042 214.669891,58.642193 
	C214.590790,54.952431 212.458511,52.834862 208.603714,52.818604 
	C203.940033,52.798935 199.274063,52.899170 194.612991,52.786095 
	C188.047897,52.626823 182.565903,54.836143 177.776382,60.386536 
M264.602173,52.808594 
	C262.864746,52.808594 261.127350,52.808594 259.180573,52.808594 
	C259.180573,49.955147 259.204346,47.960720 259.173889,45.967117 
	C259.143402,43.971035 259.203400,41.958630 258.969299,39.983543 
	C258.389648,35.093060 255.511063,32.286335 251.355850,32.355659 
	C246.766891,32.432224 243.932785,35.343922 243.759567,40.434601 
	C243.624969,44.389935 243.732666,48.353512 243.732666,52.287312 
	C238.820984,53.761021 231.328186,50.484028 231.094528,58.333687 
	C230.842194,66.810799 238.724594,63.303810 243.722137,64.811356 
	C243.722137,68.634766 243.720795,72.421211 243.722427,76.207649 
	C243.726166,84.871773 243.502213,93.543480 243.788879,102.198257 
	C244.235764,115.690689 260.571198,125.525826 272.483887,119.412422 
	C274.075256,118.595764 275.563019,115.609467 275.362671,113.822517 
	C275.162201,112.034019 272.945679,110.294403 271.287140,108.929039 
	C270.570282,108.338928 269.034515,108.755615 267.871948,108.692963 
	C261.570801,108.353416 259.204590,105.948288 259.188477,99.746971 
	C259.161652,89.416718 259.166962,79.086296 259.198212,68.756073 
	C259.202484,67.336235 259.432831,65.917076 259.575897,64.301186 
	C261.887451,64.301186 263.710999,64.302521 265.534546,64.300949 
	C273.114136,64.294388 275.754059,62.810139 275.694061,58.590485 
	C275.633545,54.335392 272.954468,52.813503 264.602173,52.808594 
M309.394897,116.448975 
	C309.528687,97.996506 309.696167,79.544182 309.777222,61.091484 
	C309.803986,54.999184 307.251678,51.996559 302.362640,51.983719 
	C297.107391,51.969917 294.394531,54.996796 294.379333,61.156330 
	C294.337830,77.963295 294.429688,94.770859 294.316772,111.577171 
	C294.289642,115.612915 295.245514,118.909485 299.169434,120.539055 
	C303.322876,122.263947 306.597229,120.747429 309.394897,116.448975 
M296.585571,25.871033 
	C292.848907,30.826534 292.460388,34.433517 295.455933,37.934322 
	C298.276306,41.230412 301.868042,41.925739 305.771149,40.272549 
	C310.234070,38.382263 312.154755,33.280624 310.194763,29.101688 
	C307.823456,24.045799 303.245544,22.740334 296.585571,25.871033 
z"/>
<path fill="#A179AC" opacity="1.000000" stroke="none" 
	d="
M431.072327,83.000015 
	C431.072235,98.831856 431.097717,114.163757 431.064148,129.495529 
	C431.035583,142.539825 423.587097,149.977371 410.639923,150.012772 
	C407.475586,150.021423 404.306946,150.242569 401.148468,150.131927 
	C397.464996,150.002914 395.093903,148.156769 395.187256,144.243362 
	C395.273438,140.630402 397.478943,139.004684 400.980530,138.684906 
	C405.577423,138.265121 411.991089,140.754242 413.922821,135.096344 
	C415.899750,129.306168 415.387177,122.666046 416.078674,115.155991 
	C413.537537,116.344170 412.607391,116.584084 411.920044,117.129799 
	C401.903564,125.082436 390.137085,121.207756 386.796356,108.755112 
	C386.240875,106.684471 385.934235,104.484047 385.921204,102.341110 
	C385.837128,88.510353 385.778778,74.677818 385.949402,60.848797 
	C385.976318,58.670120 386.567200,55.482410 388.028229,54.567886 
	C390.412079,53.075710 394.240875,51.841892 396.502838,52.787846 
	C398.716278,53.713516 400.970947,57.454918 401.065735,60.038940 
	C401.529633,72.687393 401.276520,85.362106 401.281738,98.027534 
	C401.282379,99.527069 401.223541,101.033928 401.346191,102.524727 
	C401.702789,106.859741 404.855835,110.041595 408.587677,109.928642 
	C412.626678,109.806404 415.460388,106.883621 415.503693,102.337608 
	C415.605377,91.672935 415.541595,81.006676 415.544586,70.341064 
	C415.545471,67.174706 415.509186,64.007828 415.554169,60.842098 
	C415.637085,55.009300 418.346527,51.957363 423.338745,51.998936 
	C428.271545,52.040009 430.989014,55.121208 431.052155,61.002197 
	C431.129089,68.167381 431.071655,75.334007 431.072327,83.000015 
z"/>
<path fill="#9F78AA" opacity="1.000000" stroke="none" 
	d="
M33.830742,62.859795 
	C25.794268,66.321663 21.263195,63.316853 21.218632,54.930363 
	C21.151726,42.339325 28.726982,34.726124 41.363796,34.692211 
	C44.862106,34.682823 48.360691,34.667007 51.858749,34.698582 
	C58.143642,34.755306 60.283024,36.434509 61.501629,42.446594 
	C64.676689,58.111046 67.797287,73.786530 70.961937,89.453102 
	C71.072159,89.998787 71.420471,90.496376 72.092964,91.969780 
	C72.773834,90.048004 73.238411,89.102287 73.443428,88.103294 
	C76.556389,72.934105 79.615364,57.753841 82.732872,42.585602 
	C83.860062,37.101246 87.877815,33.944984 92.399658,34.847240 
	C97.050232,35.775173 99.172241,40.022720 97.691772,45.913525 
	C92.050507,68.360176 86.316650,90.783562 80.678825,113.231071 
	C79.570938,117.642242 77.613602,121.019180 72.513840,121.178665 
	C67.887352,121.323349 65.084145,118.893188 63.668404,113.363533 
	C58.422924,92.875481 53.258709,72.366608 48.002583,51.881302 
	C47.322689,49.231464 47.782032,45.456390 42.993137,46.190067 
	C38.796261,46.833050 37.275311,49.509529 36.588860,53.327053 
	C36.023460,56.471375 34.966843,59.527363 33.830742,62.859795 
z"/>
<path fill="#A079AB" opacity="1.000000" stroke="none" 
	d="
M115.720734,56.652061 
	C124.442909,50.693615 133.612488,50.640785 142.792618,53.704945 
	C150.121811,56.151295 154.063934,61.810219 154.366577,69.596664 
	C154.599426,75.587227 154.506363,81.593773 154.437241,87.591820 
	C154.369431,93.474976 151.820786,96.054001 145.818542,96.162956 
	C139.035873,96.286087 132.249237,96.191330 125.587654,96.191330 
	C123.635986,104.844421 126.384995,108.548050 134.414948,108.685921 
	C137.247192,108.734543 140.081604,108.662537 142.913651,108.716766 
	C146.476608,108.784981 148.612015,110.649010 148.780548,114.188667 
	C148.951614,117.781364 146.861801,119.970955 143.369644,120.063187 
	C137.054092,120.230003 130.672440,120.508408 124.420769,119.815964 
	C116.682274,118.958839 109.936623,111.339272 109.664513,103.146194 
	C109.283157,91.663719 109.079979,80.125221 109.851570,68.681557 
	C110.123993,64.641121 113.484688,60.808907 115.720734,56.652061 
M124.840294,83.133545 
	C129.409332,83.847115 133.978363,84.560684 139.124207,85.364342 
	C139.124207,79.764908 139.194626,75.637604 139.105606,71.513733 
	C139.004150,66.813454 136.155380,63.614880 132.083176,63.429070 
	C128.156937,63.249924 125.003448,66.517387 124.802017,71.254745 
	C124.647163,74.896599 124.773338,78.550415 124.840294,83.133545 
z"/>
<path fill="#9E77A9" opacity="1.000000" stroke="none" 
	d="
M341.217743,113.483612 
	C341.214813,97.256943 341.214813,81.475098 341.214813,65.367279 
	C336.334930,65.280510 331.208221,65.520172 331.111115,59.464821 
	C331.010284,53.177330 336.299194,53.693314 341.216034,53.553082 
	C341.216034,49.807014 341.150208,46.368595 341.227997,42.933430 
	C341.491577,31.292465 348.912872,24.033022 360.547089,23.990423 
	C363.046356,23.981272 365.872711,23.303741 367.951935,24.247787 
	C369.976654,25.167078 372.286041,27.655779 372.506287,29.670162 
	C372.688263,31.334387 370.372833,34.019802 368.506958,34.992840 
	C365.326599,36.651394 359.784027,36.333908 358.558807,38.624786 
	C356.403564,42.654827 356.755188,48.025551 355.933044,53.689083 
	C359.880157,53.689083 362.648071,53.723598 365.414795,53.680820 
	C369.363159,53.619774 371.325409,55.754936 371.413727,59.472168 
	C371.500397,63.119846 369.225616,64.929192 365.774841,65.145264 
	C362.993347,65.319435 360.192230,65.180550 356.920563,65.180550 
	C356.810730,67.274429 356.641022,69.039543 356.637787,70.804955 
	C356.612244,84.804802 356.671417,98.805008 356.589142,112.804428 
	C356.555298,118.565094 353.731476,121.786537 348.962555,121.954239 
	C344.786194,122.101089 342.120361,119.337479 341.217743,113.483612 
z"/>
<path fill="#A179AC" opacity="1.000000" stroke="none" 
	d="
M178.012177,60.106491 
	C182.565903,54.836143 188.047897,52.626823 194.612991,52.786095 
	C199.274063,52.899170 203.940033,52.798935 208.603714,52.818604 
	C212.458511,52.834862 214.590790,54.952431 214.669891,58.642193 
	C214.753220,62.528042 212.338455,64.283829 208.568848,64.293358 
	C204.571365,64.303459 200.573868,64.304680 196.576370,64.308548 
	C192.774353,64.312218 189.413498,65.274986 188.680466,69.562286 
	C187.934937,73.922554 190.838623,75.822548 194.517639,76.905304 
	C197.867172,77.891106 201.243042,78.800148 204.552780,79.906128 
	C215.216476,83.469482 220.958832,92.893951 219.088120,103.621506 
	C217.337173,113.662254 208.330948,120.385086 197.284241,120.049385 
	C192.291794,119.897659 187.291321,120.010788 182.294479,120.002480 
	C178.566803,119.996292 176.110916,118.417572 176.175797,114.429939 
	C176.238602,110.570480 178.585007,108.770340 182.315613,108.718521 
	C186.645416,108.658386 190.985443,108.849213 195.304230,108.617722 
	C199.586044,108.388206 203.289749,106.975235 203.741257,101.886757 
	C204.164459,97.117455 201.573029,94.445145 197.206390,93.201797 
	C194.333145,92.383675 191.440704,91.631035 188.578201,90.777428 
	C174.387497,86.545715 169.539673,72.885132 178.012177,60.106491 
z"/>
<path fill="#A179AC" opacity="1.000000" stroke="none" 
	d="
M265.059052,52.808617 
	C272.954468,52.813503 275.633545,54.335392 275.694061,58.590485 
	C275.754059,62.810139 273.114136,64.294388 265.534546,64.300949 
	C263.710999,64.302521 261.887451,64.301186 259.575897,64.301186 
	C259.432831,65.917076 259.202484,67.336235 259.198212,68.756073 
	C259.166962,79.086296 259.161652,89.416718 259.188477,99.746971 
	C259.204590,105.948288 261.570801,108.353416 267.871948,108.692963 
	C269.034515,108.755615 270.570282,108.338928 271.287140,108.929039 
	C272.945679,110.294403 275.162201,112.034019 275.362671,113.822517 
	C275.563019,115.609467 274.075256,118.595764 272.483887,119.412422 
	C260.571198,125.525826 244.235764,115.690689 243.788879,102.198257 
	C243.502213,93.543480 243.726166,84.871773 243.722427,76.207649 
	C243.720795,72.421211 243.722137,68.634766 243.722137,64.811356 
	C238.724594,63.303810 230.842194,66.810799 231.094528,58.333687 
	C231.328186,50.484028 238.820984,53.761021 243.732666,52.287312 
	C243.732666,48.353512 243.624969,44.389935 243.759567,40.434601 
	C243.932785,35.343922 246.766891,32.432224 251.355850,32.355659 
	C255.511063,32.286335 258.389648,35.093060 258.969299,39.983543 
	C259.203400,41.958630 259.143402,43.971035 259.173889,45.967117 
	C259.204346,47.960720 259.180573,49.955147 259.180573,52.808594 
	C261.127350,52.808594 262.864746,52.808594 265.059052,52.808617 
z"/>
<path fill="#9C76A6" opacity="1.000000" stroke="none" 
	d="
M309.247253,116.834518 
	C306.597229,120.747429 303.322876,122.263947 299.169434,120.539055 
	C295.245514,118.909485 294.289642,115.612915 294.316772,111.577171 
	C294.429688,94.770859 294.337830,77.963295 294.379333,61.156330 
	C294.394531,54.996796 297.107391,51.969917 302.362640,51.983719 
	C307.251678,51.996559 309.803986,54.999184 309.777222,61.091484 
	C309.696167,79.544182 309.528687,97.996506 309.247253,116.834518 
z"/>
<path fill="#9F78AA" opacity="1.000000" stroke="none" 
	d="
M296.893158,25.633633 
	C303.245544,22.740334 307.823456,24.045799 310.194763,29.101688 
	C312.154755,33.280624 310.234070,38.382263 305.771149,40.272549 
	C301.868042,41.925739 298.276306,41.230412 295.455933,37.934322 
	C292.460388,34.433517 292.848907,30.826534 296.893158,25.633633 
z"/>
<path fill="#060506" opacity="1.000000" stroke="none" 
	d="
M124.807419,82.666229 
	C124.773338,78.550415 124.647163,74.896599 124.802017,71.254745 
	C125.003448,66.517387 128.156937,63.249924 132.083176,63.429070 
	C136.155380,63.614880 139.004150,66.813454 139.105606,71.513733 
	C139.194626,75.637604 139.124207,79.764908 139.124207,85.364342 
	C133.978363,84.560684 129.409332,83.847115 124.807419,82.666229 
z"/>
</svg>